<mxfile host="app.diagrams.net" modified="2021-01-21T06:05:22.882Z" agent="5.0 (Macintosh; Intel Mac OS X 11_0_0) AppleWebKit/537.36 (KHTML, like Gecko) Chrome/86.0.4240.183 Safari/537.36" etag="B-jrL9xoyqn3EyFDzs6h" version="14.2.6" type="github">
  <diagram id="C8N531PrXaPBDPDHlK4V" name="Page-1">
    <mxGraphModel dx="818" dy="472" grid="1" gridSize="10" guides="1" tooltips="1" connect="1" arrows="1" fold="1" page="1" pageScale="1" pageWidth="827" pageHeight="1169" math="0" shadow="0">
      <root>
        <mxCell id="0" />
        <mxCell id="1" parent="0" />
        <mxCell id="0T_iKl2mhXwXP4Xsc4Me-2" value="DST: &lt;u&gt;D&lt;/u&gt;&lt;br&gt;SRC: &lt;u&gt;S&lt;/u&gt;" style="rounded=0;whiteSpace=wrap;html=1;align=left;" vertex="1" parent="1">
          <mxGeometry x="70" y="360" width="60" height="40" as="geometry" />
        </mxCell>
        <mxCell id="0T_iKl2mhXwXP4Xsc4Me-14" value="" style="edgeStyle=orthogonalEdgeStyle;rounded=0;orthogonalLoop=1;jettySize=auto;html=1;" edge="1" parent="1" source="0T_iKl2mhXwXP4Xsc4Me-3" target="0T_iKl2mhXwXP4Xsc4Me-12">
          <mxGeometry relative="1" as="geometry" />
        </mxCell>
        <mxCell id="0T_iKl2mhXwXP4Xsc4Me-3" value="R1" style="ellipse;whiteSpace=wrap;html=1;aspect=fixed;" vertex="1" parent="1">
          <mxGeometry x="210" y="590" width="50" height="50" as="geometry" />
        </mxCell>
        <mxCell id="0T_iKl2mhXwXP4Xsc4Me-13" value="" style="edgeStyle=orthogonalEdgeStyle;rounded=0;orthogonalLoop=1;jettySize=auto;html=1;" edge="1" parent="1" source="0T_iKl2mhXwXP4Xsc4Me-4" target="0T_iKl2mhXwXP4Xsc4Me-3">
          <mxGeometry relative="1" as="geometry" />
        </mxCell>
        <mxCell id="0T_iKl2mhXwXP4Xsc4Me-4" value="S" style="whiteSpace=wrap;html=1;aspect=fixed;" vertex="1" parent="1">
          <mxGeometry x="110" y="590" width="50" height="50" as="geometry" />
        </mxCell>
        <mxCell id="0T_iKl2mhXwXP4Xsc4Me-6" value="D" style="whiteSpace=wrap;html=1;aspect=fixed;" vertex="1" parent="1">
          <mxGeometry x="440" y="590" width="50" height="50" as="geometry" />
        </mxCell>
        <mxCell id="0T_iKl2mhXwXP4Xsc4Me-9" value="DST: D&lt;br&gt;SRC: S" style="rounded=0;whiteSpace=wrap;html=1;align=left;" vertex="1" parent="1">
          <mxGeometry x="70" y="400" width="60" height="40" as="geometry" />
        </mxCell>
        <mxCell id="0T_iKl2mhXwXP4Xsc4Me-10" value="第二层: MAC头部" style="text;html=1;align=center;verticalAlign=middle;resizable=0;points=[];autosize=1;" vertex="1" parent="1">
          <mxGeometry x="130" y="370" width="110" height="20" as="geometry" />
        </mxCell>
        <mxCell id="0T_iKl2mhXwXP4Xsc4Me-11" value="第三层: IP头部" style="text;html=1;align=center;verticalAlign=middle;resizable=0;points=[];autosize=1;" vertex="1" parent="1">
          <mxGeometry x="137" y="410" width="90" height="20" as="geometry" />
        </mxCell>
        <mxCell id="0T_iKl2mhXwXP4Xsc4Me-15" value="" style="edgeStyle=orthogonalEdgeStyle;rounded=0;orthogonalLoop=1;jettySize=auto;html=1;" edge="1" parent="1" source="0T_iKl2mhXwXP4Xsc4Me-12" target="0T_iKl2mhXwXP4Xsc4Me-6">
          <mxGeometry relative="1" as="geometry" />
        </mxCell>
        <mxCell id="0T_iKl2mhXwXP4Xsc4Me-12" value="R2" style="ellipse;whiteSpace=wrap;html=1;aspect=fixed;" vertex="1" parent="1">
          <mxGeometry x="320" y="590" width="50" height="50" as="geometry" />
        </mxCell>
        <mxCell id="0T_iKl2mhXwXP4Xsc4Me-16" value="DST:&amp;nbsp;&amp;nbsp;&lt;u&gt;R1a&lt;/u&gt;&lt;br&gt;SRC:&amp;nbsp;&lt;u&gt;S&lt;/u&gt;" style="rounded=0;whiteSpace=wrap;html=1;align=left;" vertex="1" parent="1">
          <mxGeometry x="227" y="490" width="63" height="40" as="geometry" />
        </mxCell>
        <mxCell id="0T_iKl2mhXwXP4Xsc4Me-43" style="edgeStyle=orthogonalEdgeStyle;rounded=0;orthogonalLoop=1;jettySize=auto;html=1;exitX=0;exitY=0;exitDx=0;exitDy=0;" edge="1" parent="1" source="0T_iKl2mhXwXP4Xsc4Me-17">
          <mxGeometry relative="1" as="geometry">
            <mxPoint x="180" y="620" as="targetPoint" />
            <Array as="points">
              <mxPoint x="180" y="530" />
            </Array>
          </mxGeometry>
        </mxCell>
        <mxCell id="0T_iKl2mhXwXP4Xsc4Me-17" value="DST: D&lt;br&gt;SRC: S" style="rounded=0;whiteSpace=wrap;html=1;align=left;" vertex="1" parent="1">
          <mxGeometry x="227" y="530" width="63" height="40" as="geometry" />
        </mxCell>
        <mxCell id="0T_iKl2mhXwXP4Xsc4Me-32" value="a" style="text;html=1;align=center;verticalAlign=middle;resizable=0;points=[];autosize=1;" vertex="1" parent="1">
          <mxGeometry x="190" y="590" width="20" height="20" as="geometry" />
        </mxCell>
        <mxCell id="0T_iKl2mhXwXP4Xsc4Me-33" value="b" style="text;html=1;align=center;verticalAlign=middle;resizable=0;points=[];autosize=1;" vertex="1" parent="1">
          <mxGeometry x="260" y="590" width="20" height="20" as="geometry" />
        </mxCell>
        <mxCell id="0T_iKl2mhXwXP4Xsc4Me-34" value="a" style="text;html=1;align=center;verticalAlign=middle;resizable=0;points=[];autosize=1;" vertex="1" parent="1">
          <mxGeometry x="300" y="590" width="20" height="20" as="geometry" />
        </mxCell>
        <mxCell id="0T_iKl2mhXwXP4Xsc4Me-35" value="b" style="text;html=1;align=center;verticalAlign=middle;resizable=0;points=[];autosize=1;" vertex="1" parent="1">
          <mxGeometry x="370" y="590" width="20" height="20" as="geometry" />
        </mxCell>
        <mxCell id="0T_iKl2mhXwXP4Xsc4Me-36" value="DST: &lt;u&gt;R2a&lt;/u&gt;&lt;br&gt;SRC: &lt;u&gt;R1b&lt;/u&gt;" style="rounded=0;whiteSpace=wrap;html=1;align=left;" vertex="1" parent="1">
          <mxGeometry x="205" y="680" width="60" height="40" as="geometry" />
        </mxCell>
        <mxCell id="0T_iKl2mhXwXP4Xsc4Me-39" style="edgeStyle=orthogonalEdgeStyle;rounded=0;orthogonalLoop=1;jettySize=auto;html=1;exitX=1;exitY=0;exitDx=0;exitDy=0;" edge="1" parent="1" source="0T_iKl2mhXwXP4Xsc4Me-37">
          <mxGeometry relative="1" as="geometry">
            <mxPoint x="280" y="620" as="targetPoint" />
            <Array as="points">
              <mxPoint x="280" y="720" />
            </Array>
          </mxGeometry>
        </mxCell>
        <mxCell id="0T_iKl2mhXwXP4Xsc4Me-37" value="DST: D&lt;br&gt;SRC: S" style="rounded=0;whiteSpace=wrap;html=1;align=left;" vertex="1" parent="1">
          <mxGeometry x="205" y="720" width="60" height="40" as="geometry" />
        </mxCell>
        <mxCell id="0T_iKl2mhXwXP4Xsc4Me-42" style="edgeStyle=orthogonalEdgeStyle;rounded=0;orthogonalLoop=1;jettySize=auto;html=1;exitX=0;exitY=1;exitDx=0;exitDy=0;" edge="1" parent="1" source="0T_iKl2mhXwXP4Xsc4Me-40">
          <mxGeometry relative="1" as="geometry">
            <mxPoint x="400" y="620" as="targetPoint" />
            <Array as="points">
              <mxPoint x="400" y="530" />
            </Array>
          </mxGeometry>
        </mxCell>
        <mxCell id="0T_iKl2mhXwXP4Xsc4Me-40" value="DST:&amp;nbsp;&amp;nbsp;&lt;u&gt;D&lt;/u&gt;&lt;br&gt;SRC: &lt;u&gt;R2b&lt;/u&gt;" style="rounded=0;whiteSpace=wrap;html=1;align=left;" vertex="1" parent="1">
          <mxGeometry x="427" y="490" width="63" height="40" as="geometry" />
        </mxCell>
        <mxCell id="0T_iKl2mhXwXP4Xsc4Me-41" value="DST: D&lt;br&gt;SRC: S" style="rounded=0;whiteSpace=wrap;html=1;align=left;" vertex="1" parent="1">
          <mxGeometry x="427" y="530" width="63" height="40" as="geometry" />
        </mxCell>
        <mxCell id="0T_iKl2mhXwXP4Xsc4Me-44" value="S" style="whiteSpace=wrap;html=1;aspect=fixed;" vertex="1" parent="1">
          <mxGeometry x="150" y="960" width="50" height="50" as="geometry" />
        </mxCell>
        <mxCell id="0T_iKl2mhXwXP4Xsc4Me-45" value="D" style="whiteSpace=wrap;html=1;aspect=fixed;" vertex="1" parent="1">
          <mxGeometry x="393" y="1010" width="50" height="50" as="geometry" />
        </mxCell>
        <mxCell id="0T_iKl2mhXwXP4Xsc4Me-46" value="交换机" style="whiteSpace=wrap;html=1;aspect=fixed;" vertex="1" parent="1">
          <mxGeometry x="293" y="960" width="50" height="50" as="geometry" />
        </mxCell>
        <mxCell id="0T_iKl2mhXwXP4Xsc4Me-47" value="R" style="whiteSpace=wrap;html=1;aspect=fixed;" vertex="1" parent="1">
          <mxGeometry x="393" y="900" width="50" height="50" as="geometry" />
        </mxCell>
        <mxCell id="0T_iKl2mhXwXP4Xsc4Me-58" style="edgeStyle=orthogonalEdgeStyle;rounded=0;orthogonalLoop=1;jettySize=auto;html=1;exitX=0.5;exitY=0;exitDx=0;exitDy=0;" edge="1" parent="1" source="0T_iKl2mhXwXP4Xsc4Me-51">
          <mxGeometry relative="1" as="geometry">
            <mxPoint x="243.27586206896558" y="990" as="targetPoint" />
          </mxGeometry>
        </mxCell>
        <mxCell id="0T_iKl2mhXwXP4Xsc4Me-59" style="edgeStyle=orthogonalEdgeStyle;rounded=0;orthogonalLoop=1;jettySize=auto;html=1;exitX=1;exitY=0.75;exitDx=0;exitDy=0;" edge="1" parent="1" source="0T_iKl2mhXwXP4Xsc4Me-51">
          <mxGeometry relative="1" as="geometry">
            <mxPoint x="353" y="1040" as="targetPoint" />
          </mxGeometry>
        </mxCell>
        <mxCell id="0T_iKl2mhXwXP4Xsc4Me-51" value="DST: &lt;u&gt;D&lt;/u&gt;&lt;br&gt;SRC: &lt;u&gt;S&lt;/u&gt;" style="rounded=0;whiteSpace=wrap;html=1;align=left;" vertex="1" parent="1">
          <mxGeometry x="213" y="1070" width="60" height="40" as="geometry" />
        </mxCell>
        <mxCell id="0T_iKl2mhXwXP4Xsc4Me-52" value="DST: D&lt;br&gt;SRC: S" style="rounded=0;whiteSpace=wrap;html=1;align=left;" vertex="1" parent="1">
          <mxGeometry x="213" y="1110" width="60" height="40" as="geometry" />
        </mxCell>
        <mxCell id="0T_iKl2mhXwXP4Xsc4Me-53" value="" style="endArrow=none;html=1;exitX=1;exitY=0.5;exitDx=0;exitDy=0;entryX=0;entryY=0.5;entryDx=0;entryDy=0;" edge="1" parent="1" source="0T_iKl2mhXwXP4Xsc4Me-44" target="0T_iKl2mhXwXP4Xsc4Me-46">
          <mxGeometry width="50" height="50" relative="1" as="geometry">
            <mxPoint x="253" y="1030" as="sourcePoint" />
            <mxPoint x="303" y="980" as="targetPoint" />
          </mxGeometry>
        </mxCell>
        <mxCell id="0T_iKl2mhXwXP4Xsc4Me-56" value="" style="endArrow=none;html=1;exitX=0.5;exitY=0;exitDx=0;exitDy=0;entryX=0;entryY=0.5;entryDx=0;entryDy=0;" edge="1" parent="1" source="0T_iKl2mhXwXP4Xsc4Me-46" target="0T_iKl2mhXwXP4Xsc4Me-47">
          <mxGeometry width="50" height="50" relative="1" as="geometry">
            <mxPoint x="293" y="950" as="sourcePoint" />
            <mxPoint x="343" y="900" as="targetPoint" />
            <Array as="points">
              <mxPoint x="318" y="925" />
            </Array>
          </mxGeometry>
        </mxCell>
        <mxCell id="0T_iKl2mhXwXP4Xsc4Me-57" value="" style="endArrow=none;html=1;exitX=0.5;exitY=1;exitDx=0;exitDy=0;entryX=0;entryY=0.5;entryDx=0;entryDy=0;" edge="1" parent="1" source="0T_iKl2mhXwXP4Xsc4Me-46" target="0T_iKl2mhXwXP4Xsc4Me-45">
          <mxGeometry width="50" height="50" relative="1" as="geometry">
            <mxPoint x="314" y="1060" as="sourcePoint" />
            <mxPoint x="407" y="1060" as="targetPoint" />
            <Array as="points">
              <mxPoint x="318" y="1035" />
            </Array>
          </mxGeometry>
        </mxCell>
        <mxCell id="0T_iKl2mhXwXP4Xsc4Me-60" value="DST: &lt;u&gt;D&lt;/u&gt;&lt;br&gt;SRC: &lt;u&gt;S&lt;/u&gt;" style="rounded=0;whiteSpace=wrap;html=1;align=left;" vertex="1" parent="1">
          <mxGeometry x="70" y="810" width="60" height="40" as="geometry" />
        </mxCell>
        <mxCell id="0T_iKl2mhXwXP4Xsc4Me-61" value="DST: D&lt;br&gt;SRC: S" style="rounded=0;whiteSpace=wrap;html=1;align=left;" vertex="1" parent="1">
          <mxGeometry x="70" y="850" width="60" height="40" as="geometry" />
        </mxCell>
        <mxCell id="0T_iKl2mhXwXP4Xsc4Me-62" value="第二层: MAC头部" style="text;html=1;align=center;verticalAlign=middle;resizable=0;points=[];autosize=1;" vertex="1" parent="1">
          <mxGeometry x="130" y="820" width="110" height="20" as="geometry" />
        </mxCell>
        <mxCell id="0T_iKl2mhXwXP4Xsc4Me-63" value="第三层: IP头部" style="text;html=1;align=center;verticalAlign=middle;resizable=0;points=[];autosize=1;" vertex="1" parent="1">
          <mxGeometry x="117" y="920" width="90" height="20" as="geometry" />
        </mxCell>
        <mxCell id="0T_iKl2mhXwXP4Xsc4Me-64" value="第三层: IP头部" style="text;html=1;align=center;verticalAlign=middle;resizable=0;points=[];autosize=1;" vertex="1" parent="1">
          <mxGeometry x="136" y="860" width="90" height="20" as="geometry" />
        </mxCell>
      </root>
    </mxGraphModel>
  </diagram>
</mxfile>
